<svg width="151" height="151" viewBox="0 0 151 151" fill="none" xmlns="http://www.w3.org/2000/svg">
<path d="M22.5702 142.57L67.5702 97.5701L52.5702 82.5701L0.0701725 135.07V142.57M75.0702 71.3201C76.0647 71.3201 77.0186 71.7152 77.7218 72.4185C78.4251 73.1217 78.8202 74.0756 78.8202 75.0701C78.8202 76.0647 78.4251 77.0185 77.7218 77.7218C77.0186 78.425 76.0647 78.8201 75.0702 78.8201C74.0756 78.8201 73.1218 78.425 72.4185 77.7218C71.7153 77.0185 71.3202 76.0647 71.3202 75.0701C71.3202 74.0756 71.7153 73.1217 72.4185 72.4185C73.1218 71.7152 74.0756 71.3201 75.0702 71.3201ZM120.07 15.0701C124.048 15.0701 127.864 16.6505 130.677 19.4635C133.49 22.2766 135.07 26.0919 135.07 30.0701C135.07 34.0484 133.49 37.8637 130.677 40.6767C127.864 43.4898 124.048 45.0701 120.07 45.0701C116.092 45.0701 112.277 43.4898 109.464 40.6767C106.651 37.8637 105.07 34.0484 105.07 30.0701C105.07 26.0919 106.651 22.2766 109.464 19.4635C112.277 16.6505 116.092 15.0701 120.07 15.0701ZM120.07 105.07C124.048 105.07 127.864 106.65 130.677 109.464C133.49 112.277 135.07 116.092 135.07 120.07C135.07 124.048 133.49 127.864 130.677 130.677C127.864 133.49 124.048 135.07 120.07 135.07C116.092 135.07 112.277 133.49 109.464 130.677C106.651 127.864 105.07 124.048 105.07 120.07C105.07 116.092 106.651 112.277 109.464 109.464C112.277 106.65 116.092 105.07 120.07 105.07ZM92.7702 107.77C91.0452 111.52 90.0702 115.645 90.0702 120.07C90.0702 128.027 93.2309 135.657 98.857 141.283C104.483 146.909 112.114 150.07 120.07 150.07C128.027 150.07 135.657 146.909 141.283 141.283C146.909 135.657 150.07 128.027 150.07 120.07C150.07 112.114 146.909 104.483 141.283 98.8569C135.657 93.2308 128.027 90.0701 120.07 90.0701C115.645 90.0701 111.52 91.0451 107.77 92.7701L90.0702 75.0701L107.77 57.3701C111.52 59.0951 115.645 60.0701 120.07 60.0701C128.027 60.0701 135.657 56.9094 141.283 51.2833C146.909 45.6572 150.07 38.0266 150.07 30.0701C150.07 22.1136 146.909 14.483 141.283 8.85691C135.657 3.23082 128.027 0.0701115 120.07 0.0701115C112.114 0.0701115 104.483 3.23082 98.857 8.85691C93.2309 14.483 90.0702 22.1136 90.0702 30.0701C90.0702 34.4951 91.0452 38.6201 92.7702 42.3701L75.0702 60.0701L22.5702 7.57011L0.0701725 7.57011V15.0701L92.7702 107.77Z" fill="#3E3E3E"/>
</svg>
