<svg width="90" height="194" viewBox="0 0 90 194" fill="none" xmlns="http://www.w3.org/2000/svg">
<path d="M36.3727 0H53.4202C64.1871 0 72.8834 8.76534 72.8834 19.4632V19.6012H73.1595C82.477 19.6012 90 27.1242 90 36.4417C90 45.7592 82.477 53.2822 73.1595 53.2822H50.3834L17.2546 69.2945V53.2822H16.8405C7.523 53.2822 0 45.7592 0 36.4417C0 27.1242 7.523 19.6012 16.8405 19.6012H16.9095V19.4632C16.9095 8.69632 25.6058 0 36.3727 0ZM73.2285 80.8896L17.2546 108.014V122.922L73.2285 95.8666V80.8896ZM73.1595 159.709H51.9502L73.2285 149.425V134.517L21.1127 159.709H16.8405C7.523 159.709 0 167.232 0 176.549C0 185.867 7.523 193.39 16.8405 193.39H73.1595C82.477 193.39 90 185.867 90 176.549C90 167.232 82.477 159.709 73.1595 159.709Z" fill="black" fill-opacity="0.35"/>
<path d="M17.2551 81.1662L73.229 54.111V69.019L17.2551 96.0742V81.1662ZM17.2551 134.794L73.229 107.738V122.646L17.2551 149.702V134.794Z" fill="black" fill-opacity="0.35"/>
</svg>
